<?xml version="1.0" encoding="UTF-8"?>
<svg id="Layer_1" xmlns="http://www.w3.org/2000/svg" version="1.1" viewBox="0 0 175.1 26.3">
  <!-- Generator: Adobe Illustrator 29.5.1, SVG Export Plug-In . SVG Version: 2.1.0 Build 141)  -->
  <defs>
    <style>
      .st0 {
        fill: #004f7e;
      }
    </style>
  </defs>
  <g>
    <g>
      <path class="st0" d="M3.1,2.4H.3c-.2,0-.3-.2-.3-.3V.5C0,.3.1.2.3.2h8c.2,0,.3.2.3.3v1.5c0,.2-.1.3-.3.3h-2.8v10.3c0,.2-.2.3-.3.3h-1.7c-.2,0-.3-.2-.3-.3V2.4Z"/>
      <path class="st0" d="M14,.5c0-.2.2-.3.3-.3h1.7c.2,0,.3.2.3.3v4.9h6V.5c0-.2.1-.3.3-.3h1.7c.2,0,.3.2.3.3v12.1c0,.2-.2.3-.3.3h-1.7c-.2,0-.3-.2-.3-.3v-5.1h-6v5.1c0,.2-.1.3-.3.3h-1.7c-.2,0-.3-.2-.3-.3V.5Z"/>
      <path class="st0" d="M31.5.5c0-.2.1-.3.3-.3h7.5c.2,0,.3.2.3.3v1.5c0,.2-.1.3-.3.3h-5.4v3h4.5c.2,0,.3.2.3.3v1.5c0,.2-.2.3-.3.3h-4.5v3.2h5.4c.2,0,.3.2.3.3v1.5c0,.2-.1.3-.3.3h-7.5c-.2,0-.3-.2-.3-.3V.5Z"/>
      <path class="st0" d="M53.6.5c0-.2.1-.3.3-.3h4.2c2.2,0,3.9,1.5,3.9,3.4s-1.2,2.5-2,2.9c1,.3,2.4,1.3,2.4,3s-1.8,3.5-4,3.5h-4.4c-.2,0-.3-.2-.3-.3V.5ZM58,5.6c.9,0,1.6-.7,1.6-1.6s-.6-1.6-1.6-1.6h-2v3.2h2ZM58.2,10.8c.9,0,1.6-.7,1.6-1.7s-.9-1.6-1.9-1.6h-2v3.3h2.2Z"/>
      <path class="st0" d="M68.5.5c0-.2.1-.3.3-.3h5.2c2.2,0,4,1.8,4,3.9s-1.1,3.1-2.7,3.7l2.5,4.7c.1.2,0,.5-.3.5h-1.9c-.2,0-.3,0-.3-.2l-2.4-4.9h-2v4.7c0,.2-.2.3-.3.3h-1.7c-.2,0-.3-.2-.3-.3V.5ZM73.9,6c1,0,1.8-.8,1.8-1.9s-.8-1.8-1.8-1.8h-3v3.6h3Z"/>
      <path class="st0" d="M84.2.5c0-.2.1-.3.3-.3h7.5c.2,0,.3.2.3.3v1.5c0,.2-.1.3-.3.3h-5.4v3h4.5c.2,0,.3.2.3.3v1.5c0,.2-.2.3-.3.3h-4.5v3.2h5.4c.2,0,.3.2.3.3v1.5c0,.2-.1.3-.3.3h-7.5c-.2,0-.3-.2-.3-.3V.5Z"/>
      <path class="st0" d="M97.2,12.5L102.8.2c0-.1.1-.2.3-.2h.2c.2,0,.3,0,.3.2l5.6,12.3c.1.2,0,.5-.3.5h-1.6c-.3,0-.4-.1-.5-.4l-.9-2h-5.5l-.9,2c0,.2-.2.4-.5.4h-1.6c-.3,0-.4-.2-.3-.5ZM105.1,8.6l-1.8-4h0l-1.8,4h3.7Z"/>
      <path class="st0" d="M114.5.6c0-.2.2-.4.4-.4h1.6c.2,0,.4.2.4.4v4.9l4.6-5.2c0,0,.2-.2.3-.2h1.8c.3,0,.5.4.3.7l-4.8,5.4,5.1,6.1c.2.2,0,.6-.3.6h-2c-.2,0-.3,0-.3-.1l-4.8-5.9v5.6c0,.2-.2.4-.4.4h-1.6c-.3,0-.4-.2-.4-.4V.6Z"/>
      <path class="st0" d="M129.8.5c0-.2.1-.3.3-.3h7.5c.2,0,.3.2.3.3v1.5c0,.2-.1.3-.3.3h-5.4v3h4.5c.2,0,.3.2.3.3v1.5c0,.2-.2.3-.3.3h-4.5v3.2h5.4c.2,0,.3.2.3.3v1.5c0,.2-.1.3-.3.3h-7.5c-.2,0-.3-.2-.3-.3V.5Z"/>
      <path class="st0" d="M144.1.5c0-.2.1-.3.3-.3h5.2c2.2,0,4,1.8,4,3.9s-1.1,3.1-2.7,3.7l2.5,4.7c.1.2,0,.5-.3.5h-1.9c-.2,0-.3,0-.3-.2l-2.4-4.9h-2v4.7c0,.2-.2.3-.3.3h-1.7c-.2,0-.3-.2-.3-.3V.5ZM149.5,6c1,0,1.8-.8,1.8-1.9s-.8-1.8-1.8-1.8h-3v3.6h3Z"/>
      <path class="st0" d="M159.1,11.2l.7-1.1c.1-.3.5-.3.6-.1,0,0,1.6,1.1,2.8,1.1s1.7-.6,1.7-1.4-.8-1.6-2.3-2.2c-1.7-.7-3.4-1.8-3.4-4s1.2-3.5,4.1-3.5,3.3,1,3.7,1.2c.2.1.2.4.1.6l-.7,1c-.1.2-.4.4-.6.2-.1,0-1.5-1-2.5-1s-1.6.7-1.6,1.3c0,.9.7,1.4,2.2,2.1,1.8.7,3.8,1.8,3.8,4.1s-1.6,3.6-4.2,3.6-3.7-1.1-4-1.4c-.2-.2-.3-.3,0-.5Z"/>
    </g>
    <path class="st0" d="M171.9,0c1.8,0,3.2,1.5,3.2,3.2s-1.5,3.2-3.2,3.2-3.2-1.5-3.2-3.2,1.4-3.2,3.2-3.2ZM171.9,5.9c1.5,0,2.6-1.2,2.6-2.6s-1.2-2.6-2.6-2.6-2.6,1.2-2.6,2.6,1.2,2.6,2.6,2.6ZM170.7,1.8c0,0,0-.2.2-.2h1.3c.6,0,1.1.4,1.1,1.1s-.4.9-.7,1c.2.3.3.7.5,1,0,.1,0,.2-.2.2h-.4c0,0-.1,0-.2-.1l-.5-1.1h-.6v1c0,0,0,.2-.2.2h-.3c0,0-.2,0-.2-.2V1.8ZM172.2,3.1c.3,0,.5-.2.5-.4s-.2-.4-.5-.4h-.8v.9h.8Z"/>
  </g>
  <g>
    <path class="st0" d="M30.9,19.4c0-.1,0-.2.2-.2h2.3c1.2,0,2.2,1,2.2,2.2s-1,2.2-2.2,2.2h-1.4v2.3c0,.1,0,.2-.2.2h-.6c-.1,0-.2,0-.2-.2v-6.6ZM33.3,22.7c.7,0,1.3-.6,1.3-1.3s-.6-1.2-1.3-1.2h-1.4v2.5h1.4Z"/>
    <path class="st0" d="M41.5,25.9l3.1-6.7c0,0,.1-.1.2-.1h0c0,0,.1,0,.2.1l3,6.7c0,.1,0,.3-.2.3h-.6c-.1,0-.2,0-.2-.1l-.6-1.4h-3.3c-.2.5-.4.9-.6,1.4,0,0-.1.1-.2.1h-.6c-.1,0-.2-.1-.2-.3ZM46,23.8l-1.2-2.7h0l-1.2,2.7h2.5Z"/>
    <path class="st0" d="M55.1,19.4c0-.1,0-.2.2-.2h.7c0,0,.2,0,.2.2v5.9h2.7c.1,0,.2,0,.2.2v.5c0,.1,0,.2-.2.2h-3.6c-.1,0-.2,0-.2-.2v-6.6Z"/>
    <path class="st0" d="M66.8,19.3c0,0,0-.2.2-.2h.2c0,0,.1,0,.2.1l2.1,5.1h0l2.1-5.1c0,0,0-.1.2-.1h.2c0,0,.2,0,.2.2l1.2,6.7c0,.1,0,.2-.2.2h-.6c0,0-.2,0-.2-.1l-.7-4.5h0l-1.8,4.6c0,0,0,.1-.2.1h-.2c0,0-.1,0-.2-.1l-1.8-4.6h0l-.7,4.5c0,0,0,.1-.2.1h-.6c-.1,0-.2,0-.2-.2l1.2-6.7Z"/>
    <path class="st0" d="M88.9,19.4c0-.1,0-.2.2-.2h2.2c1.2,0,2.1.8,2.1,1.8s-.6,1.3-1,1.6c.5.2,1.2.7,1.2,1.6s-.9,1.9-2.2,1.9h-2.3c-.1,0-.2,0-.2-.2v-6.6ZM91.4,25.3c.6,0,1.1-.5,1.1-1.1s-.6-1-1.2-1h-1.4v2.1h1.5ZM91.3,22.2c.6,0,1-.5,1-1.1s-.4-1-1-1h-1.3v2.1h1.3Z"/>
    <path class="st0" d="M101.1,19.4c0-.1,0-.2.2-.2h4c.1,0,.2,0,.2.2v.6c0,0,0,.2-.2.2h-3.2v2h2.7c0,0,.2,0,.2.2v.6c0,.1,0,.2-.2.2h-2.7v2.1h3.2c.1,0,.2,0,.2.2v.5c0,.1,0,.2-.2.2h-4c-.1,0-.2,0-.2-.2v-6.6Z"/>
    <path class="st0" d="M112.1,25.9l3.1-6.7c0,0,.1-.1.2-.1h.1s.1,0,.2.1l3,6.7c0,.1,0,.3-.2.3h-.6c-.1,0-.2,0-.2-.1l-.6-1.4h-3.3c-.2.5-.4.9-.6,1.4,0,0-.1.1-.2.1h-.6c-.1,0-.2-.1-.2-.3ZM116.6,23.8l-1.2-2.7h0l-1.2,2.7h2.5Z"/>
    <path class="st0" d="M128.7,19.1c1,0,1.7.3,2.4.9,0,0,0,.2,0,.3l-.4.4c0,0-.2,0-.3,0-.5-.4-1.1-.7-1.7-.7-1.4,0-2.5,1.2-2.5,2.6s1.1,2.6,2.5,2.6,1.2-.3,1.7-.7c0,0,.2,0,.2,0l.5.4c0,0,0,.2,0,.3-.7.7-1.5,1-2.4,1-2,0-3.6-1.6-3.6-3.6s1.6-3.6,3.6-3.6Z"/>
    <path class="st0" d="M138.5,19.4c0-.1,0-.2.2-.2h.7c.1,0,.2,0,.2.2v2.8h3.7v-2.8c0-.1,0-.2.2-.2h.7c.1,0,.2,0,.2.2v6.6c0,.1,0,.2-.2.2h-.7c-.1,0-.2,0-.2-.2v-2.9h-3.7v2.9c0,.1,0,.2-.2.2h-.7c0,0-.2,0-.2-.2v-6.6Z"/>
  </g>
</svg>